<svg width="364" height="122" viewBox="0 0 364 122" fill="none" xmlns="http://www.w3.org/2000/svg">
<circle cx="35" cy="35" r="35" fill="#89CFF0"/>
<circle cx="287" cy="87" r="35" fill="#F3A7B5"/>
<path d="M48.644 41.2H55.664V79H48.644V41.2ZM29.096 79H22.076V41.2H29.096V79ZM49.184 62.8H28.502V56.806H49.184V62.8ZM78.6988 79.378C75.4948 79.378 72.6868 78.748 70.2748 77.488C67.8988 76.192 66.0448 74.428 64.7128 72.196C63.4168 69.964 62.7688 67.426 62.7688 64.582C62.7688 61.702 63.3988 59.164 64.6588 56.968C65.9548 54.736 67.7188 52.99 69.9508 51.73C72.2188 50.47 74.7928 49.84 77.6728 49.84C80.4808 49.84 82.9828 50.452 85.1788 51.676C87.3748 52.9 89.1028 54.628 90.3628 56.86C91.6228 59.092 92.2528 61.72 92.2528 64.744C92.2528 65.032 92.2348 65.356 92.1988 65.716C92.1988 66.076 92.1808 66.418 92.1448 66.742H68.1148V62.26H88.5808L85.9348 63.664C85.9708 62.008 85.6288 60.55 84.9088 59.29C84.1888 58.03 83.1988 57.04 81.9388 56.32C80.7148 55.6 79.2928 55.24 77.6728 55.24C76.0168 55.24 74.5588 55.6 73.2988 56.32C72.0748 57.04 71.1028 58.048 70.3828 59.344C69.6988 60.604 69.3568 62.098 69.3568 63.826V64.906C69.3568 66.634 69.7528 68.164 70.5448 69.496C71.3368 70.828 72.4528 71.854 73.8928 72.574C75.3328 73.294 76.9888 73.654 78.8608 73.654C80.4808 73.654 81.9388 73.402 83.2348 72.898C84.5308 72.394 85.6828 71.602 86.6908 70.522L90.3088 74.68C89.0128 76.192 87.3748 77.362 85.3948 78.19C83.4508 78.982 81.2188 79.378 78.6988 79.378ZM115.712 79V73.168L115.334 71.926V61.72C115.334 59.74 114.74 58.21 113.552 57.13C112.364 56.014 110.564 55.456 108.152 55.456C106.532 55.456 104.93 55.708 103.346 56.212C101.798 56.716 100.484 57.418 99.4036 58.318L96.7576 53.404C98.3056 52.216 100.142 51.334 102.266 50.758C104.426 50.146 106.658 49.84 108.962 49.84C113.138 49.84 116.36 50.848 118.628 52.864C120.932 54.844 122.084 57.922 122.084 62.098V79H115.712ZM106.64 79.378C104.48 79.378 102.59 79.018 100.97 78.298C99.3496 77.542 98.0896 76.516 97.1896 75.22C96.3256 73.888 95.8936 72.394 95.8936 70.738C95.8936 69.118 96.2716 67.66 97.0276 66.364C97.8196 65.068 99.0976 64.042 100.862 63.286C102.626 62.53 104.966 62.152 107.882 62.152H116.252V66.634H108.368C106.064 66.634 104.516 67.012 103.724 67.768C102.932 68.488 102.536 69.388 102.536 70.468C102.536 71.692 103.022 72.664 103.994 73.384C104.966 74.104 106.316 74.464 108.044 74.464C109.7 74.464 111.176 74.086 112.472 73.33C113.804 72.574 114.758 71.458 115.334 69.982L116.468 74.032C115.82 75.724 114.65 77.038 112.958 77.974C111.302 78.91 109.196 79.378 106.64 79.378ZM130.746 79V50.164H137.172V58.102L136.416 55.78C137.28 53.836 138.63 52.36 140.466 51.352C142.338 50.344 144.66 49.84 147.432 49.84V56.266C147.144 56.194 146.874 56.158 146.622 56.158C146.37 56.122 146.118 56.104 145.866 56.104C143.31 56.104 141.276 56.86 139.764 58.372C138.252 59.848 137.496 62.062 137.496 65.014V79H130.746ZM165.067 79.378C161.899 79.378 159.451 78.568 157.723 76.948C155.995 75.292 155.131 72.862 155.131 69.658V43.792H161.881V69.496C161.881 70.864 162.223 71.926 162.907 72.682C163.627 73.438 164.617 73.816 165.877 73.816C167.389 73.816 168.649 73.42 169.657 72.628L171.547 77.434C170.755 78.082 169.783 78.568 168.631 78.892C167.479 79.216 166.291 79.378 165.067 79.378ZM150.379 55.78V50.38H169.603V55.78H150.379ZM177.748 79V41.2H195.46C199.996 41.2 203.452 42.1 205.828 43.9C208.204 45.664 209.392 48.04 209.392 51.028C209.392 53.044 208.924 54.772 207.988 56.212C207.052 57.616 205.792 58.714 204.208 59.506C202.66 60.262 200.968 60.64 199.132 60.64L200.104 58.696C202.228 58.696 204.136 59.092 205.828 59.884C207.52 60.64 208.852 61.756 209.824 63.232C210.832 64.708 211.336 66.544 211.336 68.74C211.336 71.98 210.094 74.5 207.61 76.3C205.126 78.1 201.436 79 196.54 79H177.748ZM184.768 73.492H196.108C198.736 73.492 200.752 73.06 202.156 72.196C203.56 71.332 204.262 69.946 204.262 68.038C204.262 66.166 203.56 64.798 202.156 63.934C200.752 63.034 198.736 62.584 196.108 62.584H184.228V57.13H194.704C197.152 57.13 199.024 56.698 200.32 55.834C201.652 54.97 202.318 53.674 202.318 51.946C202.318 50.182 201.652 48.868 200.32 48.004C199.024 47.14 197.152 46.708 194.704 46.708H184.768V73.492ZM231.734 79.378C228.53 79.378 225.722 78.748 223.31 77.488C220.934 76.192 219.08 74.428 217.748 72.196C216.452 69.964 215.804 67.426 215.804 64.582C215.804 61.702 216.434 59.164 217.694 56.968C218.99 54.736 220.754 52.99 222.986 51.73C225.254 50.47 227.828 49.84 230.708 49.84C233.516 49.84 236.018 50.452 238.214 51.676C240.41 52.9 242.138 54.628 243.398 56.86C244.658 59.092 245.288 61.72 245.288 64.744C245.288 65.032 245.27 65.356 245.234 65.716C245.234 66.076 245.216 66.418 245.18 66.742H221.15V62.26H241.616L238.97 63.664C239.006 62.008 238.664 60.55 237.944 59.29C237.224 58.03 236.234 57.04 234.974 56.32C233.75 55.6 232.328 55.24 230.708 55.24C229.052 55.24 227.594 55.6 226.334 56.32C225.11 57.04 224.138 58.048 223.418 59.344C222.734 60.604 222.392 62.098 222.392 63.826V64.906C222.392 66.634 222.788 68.164 223.58 69.496C224.372 70.828 225.488 71.854 226.928 72.574C228.368 73.294 230.024 73.654 231.896 73.654C233.516 73.654 234.974 73.402 236.27 72.898C237.566 72.394 238.718 71.602 239.726 70.522L243.344 74.68C242.048 76.192 240.41 77.362 238.43 78.19C236.486 78.982 234.254 79.378 231.734 79.378ZM268.747 79V73.168L268.369 71.926V61.72C268.369 59.74 267.775 58.21 266.587 57.13C265.399 56.014 263.599 55.456 261.187 55.456C259.567 55.456 257.965 55.708 256.381 56.212C254.833 56.716 253.519 57.418 252.439 58.318L249.793 53.404C251.341 52.216 253.177 51.334 255.301 50.758C257.461 50.146 259.693 49.84 261.997 49.84C266.173 49.84 269.395 50.848 271.663 52.864C273.967 54.844 275.119 57.922 275.119 62.098V79H268.747ZM259.675 79.378C257.515 79.378 255.625 79.018 254.005 78.298C252.385 77.542 251.125 76.516 250.225 75.22C249.361 73.888 248.929 72.394 248.929 70.738C248.929 69.118 249.307 67.66 250.063 66.364C250.855 65.068 252.133 64.042 253.897 63.286C255.661 62.53 258.001 62.152 260.917 62.152H269.287V66.634H261.403C259.099 66.634 257.551 67.012 256.759 67.768C255.967 68.488 255.571 69.388 255.571 70.468C255.571 71.692 256.057 72.664 257.029 73.384C258.001 74.104 259.351 74.464 261.079 74.464C262.735 74.464 264.211 74.086 265.507 73.33C266.839 72.574 267.793 71.458 268.369 69.982L269.503 74.032C268.855 75.724 267.685 77.038 265.993 77.974C264.337 78.91 262.231 79.378 259.675 79.378ZM294.636 79.378C291.468 79.378 289.02 78.568 287.292 76.948C285.564 75.292 284.7 72.862 284.7 69.658V43.792H291.45V69.496C291.45 70.864 291.792 71.926 292.476 72.682C293.196 73.438 294.186 73.816 295.446 73.816C296.958 73.816 298.218 73.42 299.226 72.628L301.116 77.434C300.324 78.082 299.352 78.568 298.2 78.892C297.048 79.216 295.86 79.378 294.636 79.378ZM279.948 55.78V50.38H299.172V55.78H279.948Z" fill="black"/>
</svg>
